<svg xmlns="http://www.w3.org/2000/svg" xmlns:xlink="http://www.w3.org/1999/xlink" version="1.1" x="0px" y="0px" viewBox="0 0 32 32" style="enable-background:new 0 0 32 32;" xml:space="preserve"><g><path d="M22,2.25H10C7.3808594,2.25,5.25,4.3808594,5.25,7v15c0,0.0162354,0.0083008,0.0307007,0.0093384,0.046814   c0.0042725,0.0665283,0.0169678,0.1304932,0.0385132,0.1935425c0.0081787,0.0238647,0.0143433,0.0469971,0.0248413,0.0698853   c0.036499,0.079834,0.0825195,0.1556396,0.1470337,0.2200317l7,7c0.0706177,0.0706177,0.1538696,0.1254883,0.2444458,0.1628418   C12.8048096,29.7304688,12.9018555,29.75,13,29.75h9c2.6191406,0,4.75-2.1308594,4.75-4.75V7   C26.75,4.3808594,24.6191406,2.25,22,2.25z M7.8105469,22.75H9c1.7919922,0,3.25,1.4580078,3.25,3.25v1.1894531L7.8105469,22.75z    M25.25,25c0,1.7919922-1.4580078,3.25-3.25,3.25h-8.25V26c0-2.6191406-2.1308594-4.75-4.75-4.75H6.75V7   c0-1.7919922,1.4580078-3.25,3.25-3.25h12c1.7919922,0,3.25,1.4580078,3.25,3.25V25z M22,6.25   c-5.0938721,0-9.2816162,3.5258179-9.7077026,8H10c-0.2841797,0-0.5439453,0.1606445-0.6708984,0.4145508   s-0.0996094,0.5581055,0.0712891,0.7856445l3,4C12.5419922,19.6386719,12.7636719,19.75,13,19.75   s0.4580078-0.1113281,0.5996094-0.2998047l3-4c0.1708984-0.2275391,0.1982422-0.5317383,0.0712891-0.7856445   S16.2841797,14.25,16,14.25h-2.2056274C14.2229614,10.6035156,17.7393799,7.75,22,7.75c0.4140625,0,0.75-0.3359375,0.75-0.75   S22.4140625,6.25,22,6.25z M13,17.75l-1.5-2h3L13,17.75z"></path></g></svg>